<?xml version="1.0" encoding="utf-8"?>
<!-- Generator: Adobe Illustrator 21.0.0, SVG Export Plug-In . SVG Version: 6.00 Build 0)  -->
<svg version="1.1" id="Layer_1" xmlns="http://www.w3.org/2000/svg" xmlns:xlink="http://www.w3.org/1999/xlink" x="0px" y="0px"
	 viewBox="0 0 159 200" style="enable-background:new 0 0 159 200;" xml:space="preserve">
<style type="text/css">
	.st0{fill:#00D66C;}
</style>
<title>logo</title>
<path class="st0" d="M158.9,79.9c0.3-43.6-34.8-79.1-78.4-79.4c-0.4,0-0.7,0-1.1,0C35.9,0.2,0.4,35.3,0.1,78.9c0,0.4,0,0.7,0,1.1
	c-0.3,43.6,34.8,79.2,78.4,79.4c0.4,0,0.7,0,1.1,0c43.6,0.3,79.1-34.8,79.4-78.4C158.9,80.7,158.9,80.3,158.9,79.9z M121,98.6
	c-2.4,18.5-15.2,30.8-34.5,30.8c-20.8,0-34-14.4-34-34.9V78H39.3c-4.5,0-7-2.5-7-7v-2.1c0-4.4,2.5-7,7-7h23.5c1.2,0,2.3,0.2,3.4,0.7
	c-0.3-0.9-0.4-1.8-0.4-2.7V36.4c0-4.5,2.5-7,7-7H76c4.4,0,7,2.5,7,7v14.4h13.3c4.5,0,7,2.5,7,7v2.1c0,4.4-2.5,7-7,7H72.8
	c-1.2,0-2.3-0.2-3.4-0.6c0.3,0.9,0.4,1.8,0.4,2.7v25.5c0,10.8,6.5,18.3,16.8,18.3c8.8,0,15.5-5.7,16.6-14.2c0.6-4.6,2.5-7,7-7h4.5
	l0,0C118.6,91.6,121.7,94,121,98.6z"/>
<path class="st0" d="M15.5,199.1h4.3v-9.4c0-3.4,1.9-4.6,4.1-4.6c1.1,0,2.3,0.4,3.1,1.1l2-3.4c-1.2-1-2.7-1.6-4.3-1.6
	c-2.1-0.1-4,1-5.1,2.8l-0.3-2.4h-3.8V199.1z M137.3,177.4c0-1.4-1.1-2.6-2.6-2.6c-1.4,0-2.6,1.1-2.6,2.6c0,1.4,1.1,2.6,2.6,2.6
	C136.2,180,137.3,178.9,137.3,177.4 M7.6,176.6L3.3,177v4.6H0.1v3.7h3.2v7.8c0,4.2,2.4,6.2,6,6.2c1.3,0,2.6-0.3,3.8-0.9L12,195
	c-0.7,0.3-1.4,0.5-2.1,0.5c-1.4,0-2.2-0.8-2.2-2.5v-7.6h4.8v-3.8H7.6V176.6z M47.8,181.6h-3.9l-0.3,2.4c-1-1.6-2.9-2.8-5.9-2.8
	c-4.8,0-9,3-9,9.1s4.2,9.1,9,9.1c3,0,4.9-1.2,5.9-2.8l0.3,2.4h3.9L47.8,181.6z M132.6,199.1h4.3v-17.5h-4.3V199.1z M38.3,195.7
	c-3,0-5.2-2-5.2-5.4s2.2-5.4,5.2-5.4s5.2,2,5.2,5.4S41.2,195.7,38.3,195.7 M108.8,181.6H105l-0.3,2.4c-1-1.6-2.9-2.8-5.9-2.8
	c-4.8,0-9,3-9,9.1s4.2,9.1,9,9.1c3,0,4.9-1.2,5.9-2.8l0.3,2.4h3.9L108.8,181.6z M99.3,195.7c-3,0-5.2-2-5.2-5.4s2.2-5.3,5.2-5.3
	s5.2,2,5.2,5.4S102.3,195.8,99.3,195.7 M158.9,181.6h-3.9l-0.3,2.4c-1-1.6-2.9-2.8-5.9-2.8c-4.8,0-9,3-9,9.1s4.2,9.1,9,9.1
	c3,0,4.9-1.2,5.9-2.8l0.3,2.4h3.9V181.6z M149.4,195.8c-3,0-5.2-2-5.2-5.4s2.2-5.4,5.2-5.4s5.2,2,5.2,5.4S152.4,195.8,149.4,195.8
	 M123,199.1l7.5-17.5H126l-5.1,12.9l-5.1-12.9H111l7.5,17.5L123,199.1z M51.9,199.1h4.3v-9.4c-0.2-2.3,1.5-4.4,3.8-4.6
	c0.2,0,0.4,0,0.6,0c2.5,0,4.2,1.7,4.2,4.6v9.4h4.3v-10.1c0-5.2-3.2-7.8-7.4-7.8c-2.3-0.2-4.5,0.9-5.8,2.8l-0.3-2.4h-3.9L51.9,199.1z
	 M80.1,199.5c5.4,0,7.7-2.5,7.7-5.6c0-3.9-3.7-4.9-6.7-5.3c-1.7-0.2-4.4-0.4-4.4-2.1c0-1.2,1.5-1.8,3.3-1.8c1.7-0.1,3.4,0.5,4.7,1.6
	l2.2-2.9c-1.9-1.6-4.3-2.4-6.7-2.2c-3.8,0-7.9,1.3-7.9,5.5c0,3.9,3.5,4.9,6.7,5.3c1.8,0.2,4.4,0.4,4.4,2.1c0,1.2-1.4,1.8-3.2,1.8
	c-2.3,0-4.6-0.9-6.3-2.4l-2.2,2.9C74,198.8,77.3,199.5,80.1,199.5"/>
</svg>
