<svg id="Layer_1" data-name="Layer 1" xmlns="http://www.w3.org/2000/svg" viewBox="0 0 163.26 206.26"><defs><style>.cls-1{fill:#00d66c;}</style></defs><title>logo-custom</title><path class="cls-1" d="M81.63,0A78.89,78.89,0,0,0,2.19,79.44a78.9,78.9,0,0,0,79.44,79.45,78.91,78.91,0,0,0,79.45-79.45A78.9,78.9,0,0,0,81.63,0Zm41.49,98.12c-2.4,18.51-15.16,30.79-34.45,30.79-20.73,0-34-14.36-34-34.94V77.54H41.46c-4.47,0-7-2.55-7-7V68.44c0-4.46,2.55-7,7-7H64.9a8.48,8.48,0,0,1,3.42.65,9.12,9.12,0,0,1-.38-2.72V35.89c0-4.46,2.55-7,7-7h3.19c4.47,0,7,2.55,7,7V50.26H98.4c4.47,0,7,2.55,7,7v2.07c0,4.46-2.54,7-7,7H75a8.55,8.55,0,0,1-3.42-.65,8.84,8.84,0,0,1,.39,2.72V94c0,10.85,6.54,18.35,16.75,18.35,8.77,0,15.47-5.74,16.59-14.2.63-4.63,2.55-7,7-7h4.47C120.72,91.1,123.76,93.49,123.12,98.12Z"/><path class="cls-1" d="M12.56,185.82a6,6,0,0,0-4.39-1.58c-2.09,0-3.24.64-3.24,1.76s1.05,1.8,3.31,1.94c3.35.22,7.6,1,7.6,5.69,0,3.13-2.56,5.83-7.63,5.83A10.39,10.39,0,0,1,0,196.29l2.16-3.13a9.73,9.73,0,0,0,6.12,2.49c1.66,0,3.2-.83,3.2-2.13s-1-1.73-3.52-1.87c-3.35-.25-7.35-1.48-7.35-5.51s4.25-5.54,7.49-5.54A9.53,9.53,0,0,1,15,182.94Z"/><path class="cls-1" d="M24.84,176.1v5h4.89v3.78H24.8v7.67a2.21,2.21,0,0,0,2.31,2.52,5.08,5.08,0,0,0,2.12-.54l1.22,3.74a10,10,0,0,1-3.63.76c-3.85.14-6.37-2.06-6.37-6.48v-7.67H17.14v-3.78h3.31v-4.57Z"/><path class="cls-1" d="M50.65,190a8.86,8.86,0,0,1-9.25,9.26c-5.76,0-9.22-4.14-9.22-9.26a8.89,8.89,0,0,1,9.18-9.25A9,9,0,0,1,50.65,190Zm-14.07,0c0,2.7,1.61,5.22,4.82,5.22s4.82-2.52,4.82-5.22a5,5,0,0,0-4.82-5.25C38.23,184.74,36.58,187.33,36.58,190Z"/><path class="cls-1" d="M57.74,181.1l.33,2.06a5.21,5.21,0,0,1,5-2.52,6.73,6.73,0,0,1,4.57,1.69l-2,3.81A4.42,4.42,0,0,0,62.49,185c-2.3,0-4.42,1.23-4.42,4.5v9.36H53.68V181.1Z"/><path class="cls-1" d="M88.3,181.1,77.47,206.26H72.65l3.31-7.7L68.87,181.1H74l2.7,7.67,1.69,5,1.84-4.89,3.23-7.78Z"/><path class="cls-1" d="M96.8,176.1v5h4.9v3.78H96.77v7.67a2.2,2.2,0,0,0,2.3,2.52,5.08,5.08,0,0,0,2.12-.54l1.23,3.74a10,10,0,0,1-3.64.76c-3.85.14-6.37-2.06-6.37-6.48v-7.67H89.1v-3.78h3.31v-4.57Z"/><path class="cls-1" d="M109.76,176.1c0,3.42-5.18,3.42-5.18,0S109.76,172.68,109.76,176.1ZM105,181v17.82h4.39V181Z"/><path class="cls-1" d="M125.13,198.85v-9.5c0-2.34-1.22-4.47-3.63-4.47s-3.78,2.13-3.78,4.47v9.5h-4.39V181.07h4.06l.33,2.16a5.13,5.13,0,0,1,4.68-2.45,5.31,5.31,0,0,1,5.25,3.31,6.44,6.44,0,0,1,5.94-3.24c5,0,7.52,3.1,7.52,8.43v9.57h-4.39v-9.57c0-2.34-1-4.32-3.35-4.32s-3.85,2-3.85,4.39v9.5Z"/><path class="cls-1" d="M149.32,191.54c.29,2.2,2.2,3.78,5.3,3.78a7.34,7.34,0,0,0,4.75-1.65l2.81,2.77a11,11,0,0,1-7.64,2.88c-6.11,0-9.75-3.78-9.75-9.47,0-5.4,3.67-9.29,9.43-9.29,5.94,0,9.65,3.68,9,11Zm9.65-3.63c-.29-2.31-2.09-3.46-4.61-3.46a4.77,4.77,0,0,0-5,3.46Z"/></svg>