<?xml version="1.0" encoding="UTF-8"?><svg xmlns="http://www.w3.org/2000/svg" xmlns:xlink="http://www.w3.org/1999/xlink" viewBox="0 0 48 48" version="1.1"><g id="surface1"><path d="M24 41C13.5 41 5 32.5 5 22V9.898C5 8.301 6.3 7 7.898 7h32.204C41.699 7 43 8.3 43 9.898V22c0 10.5-8.5 19-19 19z" fill="#F50057"/><path d="M24 31c-.602 0-1.3-.2-1.8-.7l-9.5-9.5c-1-1-1-2.6 0-3.5 1-1 2.6-1 3.5 0L24 25l7.7-7.7c1-1 2.6-1 3.5 0 1 1 1 2.598 0 3.5l-9.5 9.5c-.4.5-1.098.7-1.7.7z" fill="#FFF"/></g><metadata><rdf:RDF xmlns:rdf="http://www.w3.org/1999/02/22-rdf-syntax-ns#" xmlns:rdfs="http://www.w3.org/2000/01/rdf-schema#" xmlns:dc="http://purl.org/dc/elements/1.1/"><rdf:Description about="https://iconscout.com/legal#licenses" dc:title="pocket" dc:description="pocket" dc:publisher="Iconscout" dc:date="2017-12-15" dc:format="image/svg+xml" dc:language="en"><dc:creator><rdf:Bag><rdf:li>Icons8</rdf:li></rdf:Bag></dc:creator></rdf:Description></rdf:RDF></metadata></svg>