<?xml version="1.0" encoding="utf-8"?>
<!-- Generator: Adobe Illustrator 23.0.1, SVG Export Plug-In . SVG Version: 6.00 Build 0)  -->
<svg version="1.1" id="Layer_1" xmlns="http://www.w3.org/2000/svg" xmlns:xlink="http://www.w3.org/1999/xlink" x="0px" y="0px"
	 viewBox="0 0 48 48" style="enable-background:new 0 0 48 48;" xml:space="preserve">
<style type="text/css">
	.st0{fill:#00D66C;}
	.st1{fill:#F50057;}
	.st2{fill:#FFFFFF;}
</style>
<title>iconfinder_Streamline-12_185032</title>
<g id="Expanded">
	<path class="st0" d="M39,48H9c-2.8,0-5-2.2-5-5V5c0-2.8,2.2-5,5-5h30c2.8,0,5,2.2,5,5v38C44,45.8,41.8,48,39,48z M9,2
		C7.3,2,6,3.3,6,5v38c0,1.7,1.3,3,3,3h30c1.7,0,3-1.3,3-3V5c0-1.7-1.3-3-3-3H9z"/>
	<path class="st0" d="M24.2,41c-1.1,0-2,0.9-2,2s0.9,2,2,2s2-0.9,2-2S25.3,41,24.2,41z"/>
	<path class="st0" d="M39,40H9c-0.6,0-1-0.4-1-1V7c0-0.6,0.4-1,1-1h30c0.6,0,1,0.4,1,1v32C40,39.6,39.6,40,39,40z M10,38h28V8H10V38
		z"/>
	<path class="st0" d="M24.2,3c-0.6,0-1,0.4-1,1s0.4,1,1,1s1-0.4,1-1S24.7,3,24.2,3z"/>
</g>
<g id="surface1">
	<path class="st1" d="M24,30.8c-4.2,0-7.7-3.4-7.7-7.7v-4.9c0-0.6,0.5-1.2,1.2-1.2h13c0.6,0,1.2,0.5,1.2,1.2c0,0,0,0,0,0v4.9
		C31.6,27.4,28.2,30.8,24,30.8z"/>
	<path class="st2" d="M24,26.8c-0.3,0-0.5-0.1-0.7-0.3l-3.8-3.8c-0.3-0.4-0.2-1.1,0.2-1.4c0.4-0.3,0.8-0.3,1.2,0l3.1,3.1l3.1-3.1
		c0.4-0.3,1.1-0.2,1.4,0.2c0.3,0.4,0.3,0.8,0,1.2l-3.8,3.8C24.5,26.7,24.3,26.8,24,26.8z"/>
</g>
</svg>
