<svg id="airport" xmlns="http://www.w3.org/2000/svg" viewBox="0 0 512 512"><defs><style>.cls-1{fill:#2800a0;}.cls-2{fill:#00d66c;}</style></defs><title>airport-splash</title><path class="cls-1" d="M354.8,309.44H103.65a4.93,4.93,0,0,0-4.93,4.93v18.27H95.79a9.82,9.82,0,0,0-9.8,9.81V469h41.1V394.46h45.28V469h34V394.46H251.7V469h34V393.08H331V469h34.05V394.46h45.28V469h41.1V342.45a9.82,9.82,0,0,0-9.8-9.81H438.7V314.37a4.93,4.93,0,0,0-4.93-4.93H419.25V253.1H354.79v56.34ZM172.37,372.91H127.1V353.46h45.27Zm79.33,0H206.42V353.46H251.7Zm79.32-.65H285.74v-18.8H331v18.8Zm79.33,0v.65H365.07V353.46h45.28v18.8Z"/><path class="cls-1" d="M331.72,166.89a11.15,11.15,0,0,0,10.6,7.65H354.8V204h64.46V174.54h13.16a11.17,11.17,0,0,0,10.6-7.65l13.64-41.14a4.89,4.89,0,0,0-3.1-6.18,4.79,4.79,0,0,0-1.55-.25H431.82V101a4.71,4.71,0,0,0-4.7-4.72H396.75V59h17.81a12,12,0,0,0,12-12V43h-78.3v4a12,12,0,0,0,12,12H378V96.23H347.63a4.71,4.71,0,0,0-4.71,4.71h0v18.37H322.73a4.9,4.9,0,0,0-4.9,4.88,4.79,4.79,0,0,0,.25,1.55ZM431.83,135a3.32,3.32,0,0,1,3.32,3.32,3.29,3.29,0,0,1-.17,1l-5.69,17.17a3.33,3.33,0,0,1-3.15,2.27H399.08a3.31,3.31,0,0,1-3.31-3.31h0V138.35a3.31,3.31,0,0,1,3.3-3.32h0Zm-88.92,0h32.74a3.32,3.32,0,0,1,3.32,3.32h0v17.16a3.32,3.32,0,0,1-3.32,3.32h-27a3.31,3.31,0,0,1-3.15-2.27l-5.69-17.17a3.32,3.32,0,0,1,2.09-4.19,3.15,3.15,0,0,1,1-.17Z"/><polygon class="cls-1" points="419.25 236.32 419.25 218 354.8 218 354.8 236.32 354.8 239.1 419.25 239.1 419.25 236.32"/><path class="cls-2" d="M57.35,89A13.79,13.79,0,0,0,61,92.92l57.41,41.48L134.87,232a17,17,0,0,0,5.61,10l10.22,8.89a4.28,4.28,0,0,0,7.09-3.19l.68-84.4,57.23,41.35a38.94,38.94,0,0,0,44.09,1l22-14.39a4.89,4.89,0,0,0,1.45-6.76,5.39,5.39,0,0,0-.45-.59l-2.43-2.72a19,19,0,0,0-17.79-6.05L237.39,180,120.57,80.8A61.89,61.89,0,0,0,79.83,65.68a52.74,52.74,0,0,0-14.66,2.2,14.06,14.06,0,0,0-8,20.8Z"/><path class="cls-2" d="M187.88,123.31a18,18,0,0,0,12.81,4.54L262,125a3.56,3.56,0,0,0,2.7-4.25,3.61,3.61,0,0,0-1.35-2.08l-9.05-6.77a14.25,14.25,0,0,0-9.15-2.81L171.24,101a3.1,3.1,0,0,0-2.4,5.4Z"/></svg>