<svg id="Layer_1" data-name="Layer 1" xmlns="http://www.w3.org/2000/svg" viewBox="0 0 24 24"><defs><style>.cls-1{fill:#ff3268;}</style></defs><title>iconmonstr-favorite-4</title><path d="M6.28,3c3.24,0,5,3.49,5.72,5,.75-1.55,2.47-5,5.73-5A4.06,4.06,0,0,1,22,7.19c0,3.44-4.74,7.85-10,13C6.74,15,2,10.63,2,7.19A4.05,4.05,0,0,1,6.28,3Z"/><path class="cls-1" d="M17.72,1A6,6,0,0,1,24,7.19c0,4.66-5.57,9.43-12,15.81C5.57,16.62,0,11.85,0,7.19A6,6,0,0,1,6.28,1,6.52,6.52,0,0,1,12,4.25,6.52,6.52,0,0,1,17.72,1Z"/></svg>